<?xml version="1.0" encoding="utf-8"?>
<!-- Generator: Adobe Illustrator 12.0.0, SVG Export Plug-In . SVG Version: 6.00 Build 51448)  -->
<!DOCTYPE svg PUBLIC "-//W3C//DTD SVG 1.1//EN" "http://www.w3.org/Graphics/SVG/1.1/DTD/svg11.dtd" [
	<!ENTITY ns_svg "http://www.w3.org/2000/svg">
	<!ENTITY ns_xlink "http://www.w3.org/1999/xlink">
]>
<svg  version="1.1" id="レイヤー_1" xmlns="&ns_svg;" xmlns:xlink="&ns_xlink;" width="24" height="24" viewBox="0 0 24 24"
	 overflow="visible" enable-background="new 0 0 24 24" xml:space="preserve">
<path fill="#E56A6C" d="M5,7c2.761,0,5,2.239,5,5c0,2.762-2.239,5-5,5s-5-2.238-5-5C0,9.239,2.239,7,5,7z M16.122,19.064
	C16.049,19.366,16,19.676,16,20c0,2.209,1.791,4,4,4s4-1.791,4-4s-1.791-4-4-4c-1.165,0-2.204,0.506-2.936,1.301l-5.487-2.927
	c-0.23,0.636-0.549,1.229-0.943,1.765L16.122,19.064z M24,4c0-2.209-1.791-4-4-4s-4,1.791-4,4c0,0.324,0.049,0.634,0.122,0.935
	l-5.488,2.927c0.395,0.535,0.713,1.127,0.943,1.764l5.487-2.927C17.796,7.494,18.835,8,20,8C22.209,8,24,6.209,24,4z"/>
</svg>
