<?xml version="1.0" encoding="utf-8"?>
<!-- Generator: Adobe Illustrator 12.0.0, SVG Export Plug-In . SVG Version: 6.00 Build 51448)  -->
<!DOCTYPE svg PUBLIC "-//W3C//DTD SVG 1.1//EN" "http://www.w3.org/Graphics/SVG/1.1/DTD/svg11.dtd" [
	<!ENTITY ns_svg "http://www.w3.org/2000/svg">
	<!ENTITY ns_xlink "http://www.w3.org/1999/xlink">
]>
<svg  version="1.1" id="レイヤー_1" xmlns="&ns_svg;" xmlns:xlink="&ns_xlink;" width="24" height="24" viewBox="0 0 24 24"
	 overflow="visible" enable-background="new 0 0 24 24" xml:space="preserve">
<path fill="#E56A6C" d="M12,0C5.373,0,0,5.373,0,12s5.373,12,12,12s12-5.373,12-12S18.627,0,12,0z M21.949,11h-2.02
	C19.479,7.383,16.617,4.521,13,4.069V2.051C17.717,2.521,21.479,6.283,21.949,11z M17.91,13c-0.424,2.507-2.403,4.486-4.91,4.91V15
	h-2v2.91C8.493,17.486,6.514,15.507,6.09,13H9v-2H6.09C6.514,8.493,8.493,6.514,11,6.09V9h2V6.09c2.507,0.423,4.486,2.402,4.91,4.91
	H15v2H17.91z M11,2.051V4.07C7.383,4.521,4.521,7.383,4.069,11H2.051C2.521,6.283,6.283,2.521,11,2.051z M2.051,13H4.07
	c0.452,3.617,3.313,6.479,6.931,6.932v2.019C6.283,21.479,2.521,17.717,2.051,13z M13,21.949v-2.02
	c3.617-0.451,6.479-3.313,6.932-6.931h2.019C21.479,17.717,17.717,21.479,13,21.949z"/>
</svg>
