<?xml version="1.0" encoding="utf-8"?>
<!-- Generator: Adobe Illustrator 12.0.0, SVG Export Plug-In . SVG Version: 6.00 Build 51448)  -->
<!DOCTYPE svg PUBLIC "-//W3C//DTD SVG 1.1//EN" "http://www.w3.org/Graphics/SVG/1.1/DTD/svg11.dtd" [
	<!ENTITY ns_svg "http://www.w3.org/2000/svg">
	<!ENTITY ns_xlink "http://www.w3.org/1999/xlink">
]>
<svg  version="1.1" id="レイヤー_1" xmlns="&ns_svg;" xmlns:xlink="&ns_xlink;" width="24" height="24" viewBox="0 0 24 24"
	 overflow="visible" enable-background="new 0 0 24 24" xml:space="preserve">
<path fill="#E56A6C" d="M22.314,17c0.215,1.257-0.623,2.158-1.313,2.191V16h1l-4-4l-4,4h1v2.339
	c-2.107-1.262-3.308-3.569-3.308-6.062c0-2.464,1.246-5.464,4.279-4.473C18.025,8.474,19.92,7.048,20.002,5
	c0.084-2.083-1.666-4-4.932-4C6.92,1,2.312,12.125,0,23h20.002C22.51,23,24,21.307,24,19.626C24,18.625,23.469,17.63,22.314,17z
	 M16.611,3.234c2.406,0.531,1.594,3.349-0.609,2.724c-2.938-0.833-6.193,0.297-8.953,4.292C8.642,4.238,13.537,2.556,16.611,3.234z
	 M10.143,9.453c-1.031,4.484,0.234,7.38,2.297,9.65C8.314,17.359,7.348,12.723,10.143,9.453z M17.002,16h2v2h-2V16z"/>
</svg>
